<svg width="580" height="200" xmlns="http://www.w3.org/2000/svg">
 <title>77 all</title>

 <g>
  <title>background</title>
  <rect x="-1" y="-1" width="582" height="202" id="canvas_background" fill="none"/>
 </g>
 <g>
  <title>Layer 1</title>
  <path fill="#0015ec" d="m343.36443,77.34a4.19615,4 0 0 0 -0.16785,-0.51l-0.06294,-0.17a4.19615,4 0 0 0 -0.33569,-0.6l-0.09441,-0.13a4.19615,4 0 0 0 -0.36716,-0.42l-0.14687,-0.14a4.19615,4 0 0 0 -0.46158,-0.36l-0.11539,-0.08a4.19615,4 0 0 0 -0.56648,-0.3l-15.39989,-6.78l0,-10.23a4.19615,4 0 0 0 -2.09808,-3.46l-11.44501,-6.16l0,-12.09a4.19615,4 0 0 0 -0.09441,-0.71c0,-0.07 0,-0.14 0,-0.21a4.19615,4 0 0 0 -0.16785,-0.51l-0.06294,-0.17a4.19615,4 0 0 0 -0.33569,-0.6l-0.09441,-0.13a4.19615,4 0 0 0 -0.36716,-0.42l-0.17834,-0.16a4.19615,4 0 0 0 -0.46158,-0.36l-0.11539,-0.08a4.19615,4 0 0 0 -0.56648,-0.3l-16.86854,-7.39a4.19615,4 0 0 0 -3.51428,0l-16.86854,7.41a4.19615,4 0 0 0 -0.56648,0.3l-0.11539,0.08a4.19615,4 0 0 0 -0.46158,0.36l-0.14687,0.14a4.19615,4 0 0 0 -0.36716,0.42l-0.09441,0.13a4.19615,4 0 0 0 -0.33569,0.6l-0.06294,0.17a4.19615,4 0 0 0 -0.20981,0.52c0,0.07 0,0.14 0,0.21a4.19615,4 0 0 0 -0.07343,0.72l0,12.07l-11.53943,6.42a4.19615,4 0 0 0 -2.09808,3.47l0.07343,9.11a4.19615,4 0 0 0 -0.60844,0.19l-16.88952,7.44a4.19615,4 0 0 0 -0.56648,0.3l-0.11539,0.07a4.19615,4 0 0 0 -0.46158,0.36l-0.14687,0.14a4.19615,4 0 0 0 -0.36716,0.42l-0.09441,0.13a4.19615,4 0 0 0 -0.33569,0.6l-0.06294,0.17a4.19615,4 0 0 0 -0.16785,0.51c0,0.07 0,0.14 0,0.21a4.19615,4 0 0 0 -0.07343,0.72l0,17.83a4.19615,4 0 0 0 2.44426,3.63l16.81609,7.41a4.19615,4 0 0 0 3.51428,0l6.50404,-2.86l23.32013,12.73a4.19615,4 0 0 0 4.19615,0l21.9354,-12.2l5.41304,2.38a4.19615,4 0 0 0 3.51428,0l16.86854,-7.41a4.19615,4 0 0 0 2.43377,-3.68l0,-17.82a4.19615,4 0 0 0 -0.07343,-0.72c-0.01049,-0.07 -0.02098,-0.14 -0.04196,-0.21zm-52.33654,-44.44l6.85022,3l-6.85022,3l-6.85022,-3l6.85022,-3zm12.67239,9.26l0,9l-8.47623,3.74l0,-9l8.47623,-3.74zm-25.35526,0l8.48672,3.73l0,9l-8.47623,-3.73l-0.01049,-9zm-25.00908,55.09l-8.46574,-3.72l0,-9l8.47623,3.73l-0.01049,8.99zm4.19615,-16l-6.85022,-3l6.85022,-3l6.85022,3l-6.85022,3zm12.68288,12.28l-8.47623,3.73l0,-9l8.47623,-3.73l0,9zm20.98077,15.35l-16.02931,-8.72l1.04904,-0.44a4.19615,4 0 0 0 2.44426,-3.63l0,-17.82a4.19615,4 0 0 0 -0.07343,-0.72c0,-0.07 0,-0.14 0,-0.21a4.19615,4 0 0 0 -0.16785,-0.51l-0.06294,-0.17a4.19615,4 0 0 0 -0.33569,-0.6l-0.09441,-0.13a4.19615,4 0 0 0 -0.36716,-0.42l-0.14687,-0.14a4.19615,4 0 0 0 -0.46158,-0.36l-0.11539,-0.08a4.19615,4 0 0 0 -0.56648,-0.3l-11.46599,-5l0,-9.44l6.48306,-3.61a4.19615,4 0 0 0 1.17492,0.78l16.86854,7.41a4.19615,4 0 0 0 3.51428,0l16.86854,-7.41a4.19615,4 0 0 0 1.22738,-0.83l6.29423,3.42l0,8.78l-13.42769,5.9a4.19615,4 0 0 0 -0.56648,0.3l-0.11539,0.08a4.19615,4 0 0 0 -0.46158,0.36l-0.14687,0.14a4.19615,4 0 0 0 -0.36716,0.42l-0.09441,0.13a4.19615,4 0 0 0 -0.33569,0.6l-0.06294,0.17a4.19615,4 0 0 0 -0.16785,0.51c0,0.07 0,0.14 0,0.21a4.19615,4 0 0 0 -0.07343,0.72l0,17.82a4.19615,4 0 0 0 2.44426,3.63l2.15053,0.95l-14.81243,8.21zm27.03373,-11.63l-8.47623,-3.73l0,-9l8.47623,3.73l0,9zm4.19615,-16l-6.85022,-3l6.85022,-3l6.85022,3l-6.85022,3zm12.6619,12.28l-8.47623,3.73l0,-9l8.47623,-3.75l0,9.02z" id="svg_1"/>
  <text transform="matrix(1, 0, 0, 1, 0, 0)" font-weight="bold" xml:space="preserve" text-anchor="start" font-family="Helvetica, Arial, sans-serif" font-size="43" id="svg_2" y="170" x="50.71666" stroke-width="0" stroke="#000" fill="#0015ec">RAD MODULES TOOLS</text>
 </g>
</svg>