<svg width="99.99999999999999" height="99.99999999999999" xmlns="http://www.w3.org/2000/svg">
 <title>77 all</title>

 <g>
  <title>background</title>
  <rect fill="none" id="canvas_background" height="102" width="102" y="-1" x="-1"/>
 </g>
 <g>
  <title>Layer 1</title>
  <path id="svg_1" d="m100.89,56.34a4,4 0 0 0 -0.16,-0.51l-0.06,-0.17a4,4 0 0 0 -0.32,-0.6l-0.09,-0.13a4,4 0 0 0 -0.35,-0.42l-0.14,-0.14a4,4 0 0 0 -0.44,-0.36l-0.11,-0.08a4,4 0 0 0 -0.54,-0.3l-14.68,-6.78l0,-10.23a4,4 0 0 0 -2,-3.46l-10.91,-6.16l0,-12.09a4,4 0 0 0 -0.09,-0.71c0,-0.07 0,-0.14 0,-0.21a4,4 0 0 0 -0.16,-0.51l-0.06,-0.17a4,4 0 0 0 -0.32,-0.6l-0.09,-0.13a4,4 0 0 0 -0.35,-0.42l-0.17,-0.16a4,4 0 0 0 -0.44,-0.36l-0.11,-0.08a4,4 0 0 0 -0.54,-0.3l-16.08,-7.39a4,4 0 0 0 -3.35,0l-16.08,7.41a4,4 0 0 0 -0.54,0.3l-0.11,0.08a4,4 0 0 0 -0.44,0.36l-0.14,0.14a4,4 0 0 0 -0.35,0.42l-0.09,0.13a4,4 0 0 0 -0.32,0.6l-0.06,0.17a4,4 0 0 0 -0.2,0.52c0,0.07 0,0.14 0,0.21a4,4 0 0 0 -0.07,0.72l0,12.07l-11,6.42a4,4 0 0 0 -2,3.47l0.07,9.11a4,4 0 0 0 -0.58,0.19l-16.1,7.44a4,4 0 0 0 -0.54,0.3l-0.11,0.07a4,4 0 0 0 -0.44,0.36l-0.14,0.14a4,4 0 0 0 -0.35,0.42l-0.09,0.13a4,4 0 0 0 -0.32,0.6l-0.06,0.17a4,4 0 0 0 -0.16,0.51c0,0.07 0,0.14 0,0.21a4,4 0 0 0 -0.07,0.72l0,17.83a4,4 0 0 0 2.33,3.63l16.03,7.41a4,4 0 0 0 3.35,0l6.2,-2.86l22.23,12.73a4,4 0 0 0 4,0l20.91,-12.2l5.16,2.38a4,4 0 0 0 3.35,0l16.08,-7.41a4,4 0 0 0 2.32,-3.68l0,-17.82a4,4 0 0 0 -0.07,-0.72c-0.01,-0.07 -0.02,-0.14 -0.04,-0.21zm-49.89,-44.44l6.53,3l-6.53,3l-6.53,-3l6.53,-3zm12.08,9.26l0,9l-8.08,3.74l0,-9l8.08,-3.74zm-24.17,0l8.09,3.73l0,9l-8.08,-3.73l-0.01,-9zm-23.84,55.09l-8.07,-3.72l0,-9l8.08,3.73l-0.01,8.99zm4,-16l-6.53,-3l6.53,-3l6.53,3l-6.53,3zm12.09,12.28l-8.08,3.73l0,-9l8.08,-3.73l0,9zm20,15.35l-15.28,-8.72l1,-0.44a4,4 0 0 0 2.33,-3.63l0,-17.82a4,4 0 0 0 -0.07,-0.72c0,-0.07 0,-0.14 0,-0.21a4,4 0 0 0 -0.16,-0.51l-0.06,-0.17a4,4 0 0 0 -0.32,-0.6l-0.09,-0.13a4,4 0 0 0 -0.35,-0.42l-0.14,-0.14a4,4 0 0 0 -0.44,-0.36l-0.11,-0.08a4,4 0 0 0 -0.54,-0.3l-10.93,-5l0,-9.44l6.18,-3.61a4,4 0 0 0 1.12,0.78l16.08,7.41a4,4 0 0 0 3.35,0l16.08,-7.41a4,4 0 0 0 1.17,-0.83l6,3.42l0,8.78l-12.8,5.9a4,4 0 0 0 -0.54,0.3l-0.11,0.08a4,4 0 0 0 -0.44,0.36l-0.14,0.14a4,4 0 0 0 -0.35,0.42l-0.09,0.13a4,4 0 0 0 -0.32,0.6l-0.06,0.17a4,4 0 0 0 -0.16,0.51c0,0.07 0,0.14 0,0.21a4,4 0 0 0 -0.07,0.72l0,17.82a4,4 0 0 0 2.33,3.63l2.05,0.95l-14.12,8.21zm25.77,-11.63l-8.08,-3.73l0,-9l8.08,3.73l0,9zm4,-16l-6.53,-3l6.53,-3l6.53,3l-6.53,3zm12.07,12.28l-8.08,3.73l0,-9l8.08,-3.75l0,9.02z"/>
 </g>
</svg>